# Blender v2.79 (sub 6) OBJ File: ''
# www.blender.org
mtllib cylinder3.mtl
o Cylinder_Cylinder.002
v -0.029081 1.851464 0.281415
v -0.029081 3.851464 0.281415
v 0.736286 1.851464 0.433656
v 0.736286 3.851464 0.433656
v 1.385132 1.851464 0.867201
v 1.385132 3.851464 0.867201
v 1.818678 1.851464 1.516048
v 1.818678 3.851464 1.516048
v 1.970919 1.851464 2.281415
v 1.970919 3.851464 2.281415
v 1.818678 1.851464 3.046782
v 1.818678 3.851464 3.046782
v 1.385132 1.851464 3.695628
v 1.385132 3.851464 3.695628
v 0.736286 1.851464 4.129174
v 0.736286 3.851464 4.129174
v -0.029081 1.851464 4.281415
v -0.029081 3.851464 4.281415
v -0.794448 1.851464 4.129174
v -0.794448 3.851464 4.129174
v -1.443295 1.851464 3.695629
v -1.443295 3.851464 3.695629
v -1.876840 1.851464 3.046782
v -1.876840 3.851464 3.046782
v -2.029081 1.851464 2.281415
v -2.029081 3.851464 2.281415
v -1.876840 1.851464 1.516047
v -1.876840 3.851464 1.516047
v -1.443294 1.851464 0.867201
v -1.443294 3.851464 0.867201
v -0.794447 1.851464 0.433655
v -0.794447 3.851464 0.433655
vn 0.1951 0.0000 -0.9808
vn 0.5556 0.0000 -0.8315
vn 0.8315 0.0000 -0.5556
vn 0.9808 0.0000 -0.1951
vn 0.9808 0.0000 0.1951
vn 0.8315 0.0000 0.5556
vn 0.5556 0.0000 0.8315
vn 0.1951 0.0000 0.9808
vn -0.1951 0.0000 0.9808
vn -0.5556 0.0000 0.8315
vn -0.8315 0.0000 0.5556
vn -0.9808 0.0000 0.1951
vn -0.9808 0.0000 -0.1951
vn -0.8315 0.0000 -0.5556
vn 0.0000 1.0000 0.0000
vn -0.5556 0.0000 -0.8315
vn -0.1951 0.0000 -0.9808
vn 0.0000 -1.0000 0.0000
usemtl None
s off
f 1//1 4//1 3//1
f 3//2 6//2 5//2
f 5//3 8//3 7//3
f 7//4 10//4 9//4
f 9//5 12//5 11//5
f 11//6 14//6 13//6
f 13//7 16//7 15//7
f 15//8 18//8 17//8
f 17//9 20//9 19//9
f 19//10 22//10 21//10
f 21//11 24//11 23//11
f 23//12 26//12 25//12
f 25//13 28//13 27//13
f 27//14 30//14 29//14
f 22//15 14//15 6//15
f 29//16 32//16 31//16
f 31//17 2//17 1//17
f 15//18 23//18 31//18
f 1//1 2//1 4//1
f 3//2 4//2 6//2
f 5//3 6//3 8//3
f 7//4 8//4 10//4
f 9//5 10//5 12//5
f 11//6 12//6 14//6
f 13//7 14//7 16//7
f 15//8 16//8 18//8
f 17//9 18//9 20//9
f 19//10 20//10 22//10
f 21//11 22//11 24//11
f 23//12 24//12 26//12
f 25//13 26//13 28//13
f 27//14 28//14 30//14
f 6//15 4//15 2//15
f 2//15 32//15 30//15
f 30//15 28//15 26//15
f 26//15 24//15 22//15
f 22//15 20//15 18//15
f 18//15 16//15 14//15
f 14//15 12//15 10//15
f 10//15 8//15 6//15
f 6//15 2//15 30//15
f 30//15 26//15 22//15
f 22//15 18//15 14//15
f 14//15 10//15 6//15
f 6//15 30//15 22//15
f 29//16 30//16 32//16
f 31//17 32//17 2//17
f 31//18 1//18 3//18
f 3//18 5//18 7//18
f 7//18 9//18 11//18
f 11//18 13//18 15//18
f 15//18 17//18 19//18
f 19//18 21//18 23//18
f 23//18 25//18 27//18
f 27//18 29//18 31//18
f 31//18 3//18 7//18
f 7//18 11//18 15//18
f 15//18 19//18 23//18
f 23//18 27//18 31//18
f 31//18 7//18 15//18
