# Blender v2.79 (sub 6) OBJ File: ''
# www.blender.org
mtllib torus5.mtl
o Torus.004
v 3.684530 0.962008 0.182250
v 3.626921 1.177008 0.182250
v 3.469531 1.334399 0.182250
v 3.254530 1.392008 0.182250
v 3.039531 1.334399 0.182250
v 2.882139 1.177008 0.182250
v 2.824530 0.962008 0.182250
v 2.882139 0.747008 0.182250
v 3.039530 0.589617 0.182250
v 3.254530 0.532008 0.182250
v 3.469531 0.589617 0.182250
v 3.626921 0.747008 0.182250
v 2.696425 0.962008 -1.177761
v 2.678623 1.177008 -1.122972
v 2.629986 1.334399 -0.973284
v 2.563548 1.392008 -0.768807
v 2.497109 1.334399 -0.564330
v 2.448472 1.177008 -0.414642
v 2.430670 0.962008 -0.359852
v 2.448472 0.747008 -0.414642
v 2.497109 0.589617 -0.564329
v 2.563548 0.532008 -0.768807
v 2.629986 0.589617 -0.973284
v 2.678623 0.747008 -1.122972
v 1.097636 0.962008 -0.658283
v 1.144243 1.177008 -0.624421
v 1.271574 1.334399 -0.531909
v 1.445513 1.392008 -0.405535
v 1.619452 1.334399 -0.279161
v 1.746784 1.177008 -0.186649
v 1.793391 0.962008 -0.152788
v 1.746784 0.747008 -0.186649
v 1.619452 0.589617 -0.279161
v 1.445513 0.532008 -0.405535
v 1.271574 0.589617 -0.531909
v 1.144243 0.747008 -0.624421
v 1.097636 0.962008 1.022782
v 1.144243 1.177008 0.988921
v 1.271574 1.334399 0.896409
v 1.445513 1.392008 0.770035
v 1.619452 1.334399 0.643661
v 1.746784 1.177008 0.551149
v 1.793391 0.962008 0.517287
v 1.746784 0.747008 0.551149
v 1.619452 0.589617 0.643661
v 1.445513 0.532008 0.770035
v 1.271574 0.589617 0.896409
v 1.144243 0.747008 0.988921
v 2.696425 0.962008 1.542261
v 2.678623 1.177008 1.487471
v 2.629986 1.334399 1.337783
v 2.563548 1.392008 1.133306
v 2.497109 1.334399 0.928829
v 2.448472 1.177008 0.779142
v 2.430670 0.962008 0.724352
v 2.448472 0.747008 0.779142
v 2.497109 0.589617 0.928829
v 2.563548 0.532008 1.133306
v 2.629986 0.589617 1.337783
v 2.678623 0.747008 1.487471
vn 0.7907 0.2119 -0.5744
vn 0.6290 0.6290 -0.4570
vn 0.2544 0.9493 -0.1848
vn -0.2544 0.9493 0.1848
vn -0.6290 0.6290 0.4570
vn -0.7907 0.2119 0.5744
vn -0.7907 -0.2119 0.5744
vn -0.6290 -0.6290 0.4570
vn -0.2544 -0.9493 0.1848
vn 0.2544 -0.9493 -0.1848
vn 0.6290 -0.6290 -0.4570
vn 0.7907 -0.2119 -0.5744
vn -0.3020 0.2119 -0.9295
vn -0.2402 0.6290 -0.7394
vn -0.0972 0.9493 -0.2990
vn 0.0972 0.9493 0.2990
vn 0.2402 0.6290 0.7394
vn 0.3020 0.2119 0.9295
vn 0.3020 -0.2119 0.9295
vn 0.2402 -0.6290 0.7394
vn 0.0972 -0.9493 0.2990
vn -0.0972 -0.9493 -0.2990
vn -0.2402 -0.6290 -0.7394
vn -0.3020 -0.2119 -0.9295
vn -0.9773 0.2119 0.0000
vn -0.7774 0.6290 0.0000
vn -0.3144 0.9493 0.0000
vn 0.3144 0.9493 0.0000
vn 0.7774 0.6290 0.0000
vn 0.9773 0.2119 0.0000
vn 0.9773 -0.2119 0.0000
vn 0.7774 -0.6290 0.0000
vn 0.3144 -0.9493 0.0000
vn -0.3144 -0.9493 0.0000
vn -0.7774 -0.6290 0.0000
vn -0.9773 -0.2119 0.0000
vn -0.3020 0.2119 0.9295
vn -0.2402 0.6290 0.7394
vn -0.0972 0.9493 0.2990
vn 0.0972 0.9493 -0.2990
vn 0.2402 0.6290 -0.7394
vn 0.3020 0.2119 -0.9295
vn 0.3020 -0.2119 -0.9295
vn 0.2402 -0.6290 -0.7394
vn 0.0972 -0.9493 -0.2990
vn -0.0972 -0.9493 0.2990
vn -0.2402 -0.6290 0.7394
vn -0.3020 -0.2119 0.9295
vn 0.7907 0.2119 0.5744
vn 0.6290 0.6290 0.4570
vn 0.2544 0.9493 0.1848
vn -0.2544 0.9493 -0.1848
vn -0.6290 0.6290 -0.4570
vn -0.7907 0.2119 -0.5744
vn -0.7907 -0.2119 -0.5744
vn -0.6290 -0.6290 -0.4570
vn -0.2544 -0.9493 -0.1848
vn 0.2544 -0.9493 0.1848
vn 0.6290 -0.6290 0.4570
vn 0.7907 -0.2119 0.5744
usemtl None
s off
f 1//1 14//1 2//1
f 14//2 3//2 2//2
f 15//3 4//3 3//3
f 16//4 5//4 4//4
f 5//5 18//5 6//5
f 18//6 7//6 6//6
f 19//7 8//7 7//7
f 8//8 21//8 9//8
f 21//9 10//9 9//9
f 22//10 11//10 10//10
f 23//11 12//11 11//11
f 12//12 13//12 1//12
f 25//13 14//13 13//13
f 14//14 27//14 15//14
f 27//15 16//15 15//15
f 16//16 29//16 17//16
f 29//17 18//17 17//17
f 30//18 19//18 18//18
f 31//19 20//19 19//19
f 32//20 21//20 20//20
f 33//21 22//21 21//21
f 22//22 35//22 23//22
f 35//23 24//23 23//23
f 36//24 13//24 24//24
f 37//25 26//25 25//25
f 38//26 27//26 26//26
f 39//27 28//27 27//27
f 40//28 29//28 28//28
f 41//29 30//29 29//29
f 42//30 31//30 30//30
f 43//31 32//31 31//31
f 44//32 33//32 32//32
f 45//33 34//33 33//33
f 46//34 35//34 34//34
f 47//35 36//35 35//35
f 48//36 25//36 36//36
f 49//37 38//37 37//37
f 50//38 39//38 38//38
f 39//39 52//39 40//39
f 52//40 41//40 40//40
f 53//41 42//41 41//41
f 54//42 43//42 42//42
f 55//43 44//43 43//43
f 56//44 45//44 44//44
f 57//45 46//45 45//45
f 58//46 47//46 46//46
f 59//47 48//47 47//47
f 60//48 37//48 48//48
f 1//49 50//49 49//49
f 50//50 3//50 51//50
f 3//51 52//51 51//51
f 52//52 5//52 53//52
f 53//53 6//53 54//53
f 6//54 55//54 54//54
f 7//55 56//55 55//55
f 8//56 57//56 56//56
f 57//57 10//57 58//57
f 10//58 59//58 58//58
f 11//59 60//59 59//59
f 60//60 1//60 49//60
f 1//1 13//1 14//1
f 14//2 15//2 3//2
f 15//3 16//3 4//3
f 16//4 17//4 5//4
f 5//5 17//5 18//5
f 18//6 19//6 7//6
f 19//7 20//7 8//7
f 8//8 20//8 21//8
f 21//9 22//9 10//9
f 22//10 23//10 11//10
f 23//11 24//11 12//11
f 12//12 24//12 13//12
f 25//13 26//13 14//13
f 14//14 26//14 27//14
f 27//15 28//15 16//15
f 16//16 28//16 29//16
f 29//17 30//17 18//17
f 30//18 31//18 19//18
f 31//19 32//19 20//19
f 32//20 33//20 21//20
f 33//21 34//21 22//21
f 22//22 34//22 35//22
f 35//23 36//23 24//23
f 36//24 25//24 13//24
f 37//25 38//25 26//25
f 38//26 39//26 27//26
f 39//27 40//27 28//27
f 40//28 41//28 29//28
f 41//29 42//29 30//29
f 42//30 43//30 31//30
f 43//31 44//31 32//31
f 44//32 45//32 33//32
f 45//33 46//33 34//33
f 46//34 47//34 35//34
f 47//35 48//35 36//35
f 48//36 37//36 25//36
f 49//37 50//37 38//37
f 50//38 51//38 39//38
f 39//39 51//39 52//39
f 52//40 53//40 41//40
f 53//41 54//41 42//41
f 54//42 55//42 43//42
f 55//43 56//43 44//43
f 56//44 57//44 45//44
f 57//45 58//45 46//45
f 58//46 59//46 47//46
f 59//47 60//47 48//47
f 60//48 49//48 37//48
f 1//49 2//49 50//49
f 50//50 2//50 3//50
f 3//51 4//51 52//51
f 52//52 4//52 5//52
f 53//53 5//53 6//53
f 6//54 7//54 55//54
f 7//55 8//55 56//55
f 8//56 9//56 57//56
f 57//57 9//57 10//57
f 10//58 11//58 59//58
f 11//59 12//59 60//59
f 60//60 12//60 1//60
